<svg xmlns="http://www.w3.org/2000/svg" version="1.1" xmlns:xlink="http://www.w3.org/1999/xlink" xmlns:svgjs="http://svgjs.dev/svgjs" width="1920" height="1080" preserveAspectRatio="none" viewBox="0 0 1920 1080"><g mask="url(&quot;#SvgjsMask1015&quot;)" fill="none"><rect width="1920" height="1080" x="0" y="0" fill="rgba(10, 56, 76, 1)"></rect><path d="M0,929.173C174.493,926.965,331.626,838.797,478.606,744.725C625.817,650.506,779.265,547.942,847.233,386.918C914.484,227.593,876.424,48.53,844.189,-121.376C813.198,-284.724,774.361,-450.998,664.572,-575.855C555.182,-700.259,395.404,-758.93,238.046,-810.71C76.12,-863.993,-94.632,-927.355,-258.25,-879.519C-421.929,-831.665,-541.241,-693.509,-639.513,-554.141C-731.078,-424.284,-778.808,-272.454,-797.561,-114.672C-815.961,40.136,-798.268,193.798,-745.861,340.623C-689.76,497.797,-617.465,653.558,-486.454,756.937C-348.625,865.696,-175.557,931.394,0,929.173" fill="#082e3e"></path><path d="M1920 1633.153C2058.003 1667.479 2192.995 1757.137 2329.46 1717.132 2474.693 1674.556 2588.386 1551.436 2657.695 1416.894 2728.631 1279.194 2767.121 1111.91 2716.687 965.454 2668.242 824.774 2503.69 770.646 2398.809 665.11 2303.183 568.887 2251.854 427.35 2127.666 372.755 1997.274 315.433 1837.465 300.08799999999997 1709.156 361.92999999999995 1584.719 421.90599999999995 1535.4560000000001 568.348 1469.75 689.857 1416.715 787.933 1405.45 896.533 1364.0810000000001 1000.071 1306.2910000000002 1144.705 1111.299 1278.125 1178.578 1418.596 1246.4009999999998 1560.204 1472.58 1497.866 1623.404 1541.512 1724.857 1570.871 1817.507 1607.659 1920 1633.153" fill="#0c425a"></path></g><defs><mask id="SvgjsMask1015"><rect width="1920" height="1080" fill="#ffffff"></rect></mask></defs></svg>