<svg xmlns="http://www.w3.org/2000/svg" version="1.1" xmlns:xlink="http://www.w3.org/1999/xlink" xmlns:svgjs="http://svgjs.dev/svgjs" width="1520" height="700" preserveAspectRatio="none" viewBox="0 0 1520 700"><g mask="url(&quot;#SvgjsMask1087&quot;)" fill="none"><rect width="1520" height="700" x="0" y="0" fill="#0e2a47"></rect><path d="M24 700L724 0L1469.5 0L769.5 700z" fill="url(&quot;#SvgjsLinearGradient1088&quot;)"></path><path d="M535.6 700L1235.6 0L1318.1 0L618.1 700z" fill="url(&quot;#SvgjsLinearGradient1088&quot;)"></path><path d="M1479 700L779 0L668 0L1368 700z" fill="url(&quot;#SvgjsLinearGradient1089&quot;)"></path><path d="M984.4 700L284.4 0L149.39999999999998 0L849.4 700z" fill="url(&quot;#SvgjsLinearGradient1089&quot;)"></path><path d="M1079.5256742446204 700L1520 259.5256742446203L1520 700z" fill="url(&quot;#SvgjsLinearGradient1088&quot;)"></path><path d="M0 700L440.4743257553797 700L 0 259.5256742446203z" fill="url(&quot;#SvgjsLinearGradient1089&quot;)"></path></g><defs><mask id="SvgjsMask1087"><rect width="1520" height="700" fill="#ffffff"></rect></mask><linearGradient x1="0%" y1="100%" x2="100%" y2="0%" id="SvgjsLinearGradient1088"><stop stop-color="rgba(15, 70, 185, 0.2)" offset="0"></stop><stop stop-opacity="0" stop-color="rgba(15, 70, 185, 0.2)" offset="0.66"></stop></linearGradient><linearGradient x1="100%" y1="100%" x2="0%" y2="0%" id="SvgjsLinearGradient1089"><stop stop-color="rgba(15, 70, 185, 0.2)" offset="0"></stop><stop stop-opacity="0" stop-color="rgba(15, 70, 185, 0.2)" offset="0.66"></stop></linearGradient></defs></svg>